<svg width="144" height="144" viewBox="0 0 144 144" fill="none" xmlns="http://www.w3.org/2000/svg">
<g clip-path="url(#clip0)">
<path d="M10.8623 23.2843C12.0269 23.2843 12.9705 22.3407 12.9705 21.1761V13.3547C12.9705 8.31586 17.0652 4.21639 22.0979 4.21639H70.1851C70.6584 4.21639 71.1219 4.27346 71.5728 4.37437V31.4996C71.5728 36.8639 75.9258 41.2279 81.2767 41.2279H108.314C108.414 41.6765 108.47 42.1375 108.47 42.6081V66.1233C108.47 67.2879 109.414 68.2315 110.578 68.2315C111.743 68.2315 112.686 67.2879 112.686 66.1233V42.6081C112.686 39.7963 111.593 37.1518 109.609 35.1619L77.6433 3.09652C75.6523 1.09964 73.0036 0 70.1851 0H22.0979C14.74 0 8.75415 5.99093 8.75415 13.3547V21.1761C8.75415 22.3407 9.69806 23.2843 10.8623 23.2843ZM105.499 37.0115H81.2767C78.2507 37.0115 75.7892 34.5387 75.7892 31.4996V7.20891L105.499 37.0115Z" fill="#3ABFEF"/>
<path d="M34.5222 125.958H22.0979C17.0652 125.958 12.9705 121.859 12.9705 116.82V31.0144C12.9705 29.8498 12.0269 28.9062 10.8623 28.9062C9.69778 28.9062 8.75415 29.8498 8.75415 31.0144V116.82C8.75415 124.184 14.74 130.175 22.0979 130.175H34.5222C35.6868 130.175 36.6304 129.231 36.6304 128.067C36.6304 126.902 35.6868 125.958 34.5222 125.958Z" fill="#3ABFEF"/>
<path d="M26.9875 44.2812H61.7337C62.8983 44.2812 63.8419 43.3375 63.8419 42.173C63.8419 41.0084 62.8983 40.0648 61.7337 40.0648H26.9875C25.823 40.0648 24.8793 41.0084 24.8793 42.173C24.8793 43.3375 25.823 44.2812 26.9875 44.2812Z" fill="#3ABFEF"/>
<path d="M26.9875 90.673C25.823 90.673 24.8793 91.6166 24.8793 92.7812C24.8793 93.9457 25.823 94.8894 26.9875 94.8894H61.7337C62.8983 94.8894 63.8419 93.9457 63.8419 92.7812C63.8419 91.6166 62.8983 90.673 61.7337 90.673H26.9875Z" fill="#3ABFEF"/>
<path d="M91.4535 59.0425C91.4535 57.8779 90.5099 56.9343 89.3453 56.9343H26.426C25.2614 56.9343 24.3178 57.8779 24.3178 59.0425C24.3178 60.207 25.2614 61.1507 26.426 61.1507H89.3453C90.5096 61.1507 91.4535 60.2068 91.4535 59.0425Z" fill="#3ABFEF"/>
<path d="M77.409 75.912C77.409 74.7474 76.4654 73.8038 75.3008 73.8038H26.426C25.2614 73.8038 24.3178 74.7474 24.3178 75.912C24.3178 77.0765 25.2614 78.0202 26.426 78.0202H75.3008C76.4651 78.0202 77.409 77.0762 77.409 75.912Z" fill="#3ABFEF"/>
<path d="M135.224 132.213C135.085 130.276 134.196 127.426 130.75 124.835L112.558 110.477L116.678 106.366C119.419 107.657 122.675 106.708 124.86 104.517C127.746 101.62 128.085 97.2439 125.616 94.7604L112.686 81.7832V63.9616C112.686 62.797 111.743 61.8534 110.578 61.8534C109.414 61.8534 108.47 62.797 108.47 63.9616V77.5513L104.281 73.3467C101.619 70.6654 97.1182 71.421 94.5358 74.1009C92.1564 76.4896 91.5099 79.8833 92.7408 82.3929L73.8423 101.251C71.3381 100.046 67.9689 100.7 65.5931 103.071C62.9193 105.651 62.1652 110.157 64.8398 112.816L78.005 125.958H34.3605C33.1959 125.958 32.2523 126.902 32.2523 128.067C32.2523 129.231 33.1959 130.175 34.3605 130.175H82.2287L86.236 134.175C88.991 136.822 93.2855 136.107 95.9888 133.416C98.19 131.216 99.1314 127.936 97.8148 125.189L101.818 121.195L116.175 139.419C121.332 145.677 126.581 145.047 131.731 140.401C134.186 137.944 135.426 135.037 135.224 132.213ZM97.5244 77.0746C98.6148 76.0722 100.065 75.3627 101.292 76.321L122.627 97.7352C123.432 98.5442 123.086 100.311 121.889 101.525C120.768 102.589 119.108 103.338 117.936 102.128L110.033 94.1948C109.21 93.3693 107.875 93.3676 107.051 94.1889C106.226 95.0108 106.224 96.3458 107.045 97.1702L113.465 103.614C107.927 109.135 100.591 116.46 95.0545 121.986L77.0459 104.01L95.5062 85.5886L100.096 90.1954C100.918 91.0202 102.253 91.0221 103.078 90.2011C103.902 89.3791 103.905 88.0442 103.083 87.2195L97.0033 81.1173C95.8972 80.2481 96.2159 78.432 97.5244 77.0746ZM93.0087 130.433C91.7963 131.642 90.0223 131.995 89.2136 131.189L67.8171 109.831C66.8611 108.601 67.5686 107.148 68.5727 106.054C69.9051 104.763 71.7145 104.431 72.5707 105.5L93.7645 126.656C94.7208 127.885 94.0113 129.342 93.0087 130.433ZM128.749 137.421C125.58 140.579 122.16 140.497 119.503 136.83L104.823 118.196L109.553 113.476L128.158 128.161C131.823 130.821 131.908 134.253 128.749 137.421Z" fill="#3ABFEF"/>
</g>
<defs>
<clipPath id="clip0">
<rect width="144" height="144" fill="white"/>
</clipPath>
</defs>
</svg>
