<svg width="144" height="144" viewBox="0 0 144 144" fill="none" xmlns="http://www.w3.org/2000/svg">
<g clip-path="url(#clip0)">
<path d="M94.9909 67.2822C93.6941 64.1141 90.062 62.5895 86.8933 63.8846L36.4515 84.504C34.916 85.1315 33.7169 86.3194 33.0747 87.849C32.4328 89.3786 32.4252 91.0663 33.0531 92.6024C33.3678 93.3717 33.8235 94.0577 34.4074 94.6423C34.4077 94.6423 34.4077 94.6422 34.4077 94.6425C35.5981 95.8329 37.1811 96.4644 38.7957 96.4644C39.5872 96.4644 40.3864 96.3125 41.1506 96.0003L91.593 75.3809C94.7622 74.0847 96.2867 70.4522 94.9909 67.2822ZM89.9967 71.4755L39.5543 92.095C38.8089 92.3993 37.9603 92.2286 37.391 91.6593C37.2051 91.4733 37.0594 91.2528 36.9578 91.0053C36.7564 90.513 36.7589 89.9716 36.9648 89.4813C37.1705 88.991 37.555 88.6101 38.0475 88.4088L88.4893 67.7893C89.5056 67.3744 90.6707 67.8633 91.0864 68.879C91.5018 69.8953 91.013 71.0601 89.9967 71.4755Z" fill="#3ABFEF"/>
<path d="M73.5572 65.947C80.2 59.3039 80.679 48.9741 74.6246 42.92C68.5703 36.866 58.2402 37.345 51.5975 43.9878C44.9547 50.6306 44.4757 60.9604 50.5297 67.0144C53.3732 69.8576 57.1581 71.2598 61.0626 71.2598C65.4723 71.2598 70.0336 69.4703 73.5572 65.947ZM54.5808 46.9705C57.285 44.266 60.7662 42.8852 64.0909 42.8852C66.9108 42.8852 69.6181 43.8792 71.6417 45.9028C76.0513 50.3124 75.5723 57.9658 70.5742 62.9639C65.5764 67.9621 57.9221 68.4405 53.513 64.0314C49.1033 59.622 49.5824 51.9686 54.5808 46.9705Z" fill="#3ABFEF"/>
<path d="M67.7577 60.148C69.3343 58.5717 70.3469 56.5591 70.6099 54.481C70.8934 52.2369 70.2431 50.1366 68.8255 48.7192C67.4084 47.3016 65.3103 46.6515 63.0634 46.935C60.9853 47.1978 58.973 48.2107 57.3967 49.787C55.8201 51.3633 54.8075 53.3759 54.5445 55.454C54.2606 57.6983 54.911 59.7984 56.3286 61.2158C57.528 62.4152 59.2157 63.0655 61.0663 63.0652C61.403 63.0652 61.7453 63.0435 62.0907 62.9999C64.1688 62.7369 66.1814 61.7243 67.7577 60.148ZM59.3119 58.2325C58.823 57.7436 58.611 56.9237 58.7299 55.9825C58.874 54.845 59.4751 53.6737 60.3797 52.7694C61.284 51.8648 62.4552 51.2637 63.5928 51.12C63.7643 51.098 63.9323 51.0876 64.0946 51.0876C64.822 51.0876 65.443 51.3022 65.8425 51.7017C65.8425 51.7017 65.8425 51.7017 65.8427 51.7019C66.3313 52.1908 66.5437 53.0108 66.4247 53.9519C66.2807 55.0894 65.6796 56.2607 64.775 57.165C63.8707 58.0696 62.6994 58.6707 61.5619 58.8145C60.6199 58.9332 59.8005 58.7211 59.3119 58.2325Z" fill="#3ABFEF"/>
<path d="M69.4023 110.379C70.9789 108.802 71.9915 106.79 72.2545 104.712C72.5383 102.467 71.888 100.367 70.4703 98.9498C69.053 97.5322 66.9532 96.8827 64.7083 97.1657C62.6302 97.4284 60.6176 98.441 59.0413 100.017C57.4647 101.594 56.4521 103.606 56.1891 105.684C55.9055 107.929 56.5559 110.029 57.9735 111.446C59.1726 112.645 60.8603 113.296 62.7109 113.296C63.0476 113.296 63.3899 113.274 63.7356 113.231C65.8137 112.968 67.826 111.955 69.4023 110.379ZM60.9565 108.463C60.4679 107.974 60.2556 107.155 60.3745 106.213C60.5186 105.076 61.1197 103.905 62.0243 103C62.9286 102.096 64.0999 101.495 65.2374 101.351C65.4089 101.329 65.5766 101.319 65.7389 101.319C66.4666 101.319 67.0876 101.533 67.4873 101.933H67.4876C67.9762 102.421 68.1883 103.242 68.0693 104.183C67.9253 105.32 67.3242 106.491 66.4196 107.396C65.5153 108.3 64.344 108.901 63.2065 109.045C62.2667 109.164 61.4454 108.952 60.9565 108.463Z" fill="#3ABFEF"/>
<path d="M65.0176 121.306C65.1284 121.306 65.2415 121.298 65.3546 121.279C69.0003 120.694 72.4972 118.882 75.202 116.177C81.8448 109.534 82.3243 99.2046 76.27 93.1503C70.2143 87.0985 59.8842 87.5764 53.2406 94.2169C46.5995 100.861 46.1216 111.192 52.1751 117.246C53.2561 118.327 54.4988 119.223 55.8689 119.91C56.9096 120.431 58.1774 120.011 58.6997 118.969C59.2215 117.928 58.8004 116.66 57.7591 116.138C56.794 115.655 55.919 115.023 55.1587 114.263C50.7493 109.853 51.2277 102.199 56.2239 97.1997C61.2225 92.2035 68.8776 91.7256 73.2876 96.1333C77.6967 100.542 77.2171 108.196 72.219 113.194C70.1372 115.276 67.4619 116.668 64.6857 117.114C63.5355 117.299 62.753 118.381 62.9375 119.531C63.104 120.568 63.9996 121.306 65.0176 121.306Z" fill="#3ABFEF"/>
<path d="M143.28 7.82353C141.61 3.61104 138.341 1.04181 134.075 0.589226C126.67 -0.197521 116.987 5.53473 110.579 14.3549C105.594 12.9313 100.68 11.899 95.8959 11.2768C94.7416 11.1278 93.6825 11.9409 93.532 13.0965C93.3818 14.2517 94.1964 15.3099 95.3517 15.4601C102.489 16.3886 109.945 18.2706 117.51 21.0542C119.795 21.8947 121.588 23.6873 122.428 25.9733C122.635 26.5356 122.831 27.09 123.026 27.6433C120.432 29.035 117.605 30.408 114.583 31.7427C114.215 31.1908 113.788 30.6668 113.302 30.1801C111.361 28.2399 108.782 27.1715 106.038 27.1715C103.294 27.1715 100.715 28.2401 98.7743 30.1801C94.7691 34.1853 94.7691 40.7021 98.7743 44.707C100.777 46.7094 103.408 47.7108 106.038 47.7108C108.668 47.7108 111.299 46.7094 113.302 44.707C115.758 42.2508 116.705 38.8501 116.149 35.6632C119.071 34.376 121.819 33.0512 124.369 31.7055C130.298 50.8499 128.729 64.0764 127.685 69.1603C127.408 70.511 126.781 71.7891 125.872 72.8558C104.614 97.776 86.1495 116.428 62.1398 137.236C59.1303 139.843 54.6875 139.949 51.5748 137.488C34.6858 124.13 19.3505 108.794 5.99469 91.9045C3.53318 88.7943 3.63894 84.3526 6.24671 81.3432C27.0445 57.3413 45.6966 38.8771 70.6281 17.6102C71.6913 16.7022 72.9697 16.0741 74.3224 15.7945C76.9248 15.2604 81.2707 14.6548 87.188 14.8106C88.3519 14.8322 89.3212 13.9215 89.3513 12.7569C89.3817 11.5924 88.4622 10.6237 87.2977 10.5933C80.9792 10.4282 76.2928 11.0836 73.4712 11.6628C71.421 12.0864 69.4903 13.0337 67.8889 14.4016C42.7873 35.8145 24.0046 54.4084 3.05894 78.581C-0.874795 83.1209 -1.03091 89.8255 2.68652 94.5221C16.2443 111.667 31.8125 127.236 48.958 140.796C51.2266 142.591 53.9623 143.483 56.6967 143.482C59.6265 143.482 62.5547 142.458 64.9025 140.424C89.0833 119.468 107.677 100.686 129.082 75.5929C130.452 73.9857 131.398 72.0547 131.818 70.0086C132.505 66.6611 133.229 61.0748 132.769 53.4737C132.307 45.8276 130.749 37.8231 128.135 29.6159C133.204 26.6475 137.104 23.6772 139.732 20.7735C143.738 16.3484 144.932 11.9913 143.28 7.82353ZM110.573 33.445C109.583 33.8486 108.693 34.1988 107.943 34.4871C107.931 33.578 107.975 32.6622 108.064 31.7432C108.901 32.0403 109.671 32.5162 110.318 33.1631C110.409 33.2537 110.49 33.3502 110.573 33.445ZM110.319 41.7243C107.959 44.0842 104.118 44.0848 101.758 41.7243C99.3973 39.364 99.3973 35.5234 101.758 33.1631C102.356 32.5651 103.058 32.1117 103.822 31.8116C103.662 33.7966 103.7 35.7709 103.945 37.7084C104.025 38.3393 104.386 38.9005 104.926 39.2357C105.264 39.4453 105.65 39.5528 106.038 39.5528C106.271 39.5528 106.505 39.5142 106.73 39.436C106.837 39.3989 108.925 38.6712 112.087 37.3846C112.101 38.9545 111.514 40.5291 110.319 41.7243ZM126.752 25.5314C126.631 25.1933 126.512 24.8557 126.388 24.5171C125.119 21.0683 122.414 18.3632 118.966 17.0954C117.597 16.5917 116.232 16.1183 114.87 15.6716C120.335 8.75879 128.041 4.18992 133.63 4.78455C136.336 5.07174 138.264 6.61739 139.358 9.37846C141.668 15.2058 133.289 21.5937 126.752 25.5314Z" fill="#3ABFEF"/>
</g>
<defs>
<clipPath id="clip0">
<rect width="144" height="144" fill="white"/>
</clipPath>
</defs>
</svg>
