<svg width="149" height="111" viewBox="0 0 149 111" fill="none" xmlns="http://www.w3.org/2000/svg">
<path d="M141.539 52.4771L123.845 46.5811C122.842 46.2467 122.035 45.4921 121.632 44.5102L111.772 20.5224C110.085 16.4138 106.123 13.7589 101.678 13.7589H101.564V9.82962C101.564 4.45398 97.1911 0.0805969 91.8154 0.0805969C86.4398 0.0805969 82.0664 4.45398 82.0664 9.82962V13.7589H67.236C67.2322 13.7589 67.2284 13.7583 67.2246 13.7583C67.2208 13.7583 67.217 13.7589 67.2133 13.7589H10.9131C4.89546 13.7589 0 18.6544 0 24.672V39.0767C0 40.2821 0.976939 41.2593 2.18262 41.2593C3.38829 41.2593 4.36523 40.2821 4.36523 39.0767V24.672C4.36523 21.0614 7.30275 18.1241 10.9131 18.1241H65.042V65.2681H4.36523V49.2622C4.36523 48.0569 3.38829 47.0796 2.18262 47.0796C0.976939 47.0796 0 48.0569 0 49.2622V83.6027C0 89.6203 4.89546 94.5158 10.9131 94.5158H16.5041C17.5875 103.599 25.3332 110.667 34.7036 110.667C44.074 110.667 51.8197 103.599 52.9031 94.5158H92.6774C93.7609 103.599 101.507 110.667 110.877 110.667C120.247 110.667 127.993 103.599 129.076 94.5158H138.087C144.105 94.5158 149 89.6203 149 83.6027V62.83C149 58.124 146.001 53.9633 141.539 52.4771ZM34.7036 106.301C27.001 106.301 20.7349 100.035 20.7349 92.3326C20.7349 84.6302 27.001 78.3638 34.7036 78.3638C42.4062 78.3638 48.6724 84.6302 48.6724 92.3326C48.6724 100.035 42.4062 106.301 34.7036 106.301ZM65.042 90.1505H52.9031C51.8203 81.0668 44.074 73.9986 34.7036 73.9986C25.3332 73.9986 17.5869 81.0668 16.5041 90.1505H10.9131C7.30275 90.1505 4.36523 87.2133 4.36523 83.6027V69.6333H65.042V90.1505ZM86.4316 9.82962C86.4316 6.86097 88.8468 4.44583 91.8154 4.44583C94.7841 4.44583 97.1992 6.86097 97.1992 9.82962V13.7589H86.4316V9.82962ZM110.877 106.301C103.174 106.301 96.9082 100.035 96.9082 92.3326C96.9082 84.6302 103.174 78.3638 110.877 78.3638C118.58 78.3638 124.846 84.6302 124.846 92.3326C124.846 100.035 118.58 106.301 110.877 106.301ZM144.635 65.2681H111.343C110.138 65.2681 109.161 66.2453 109.161 67.4507C109.161 68.6561 110.138 69.6333 111.343 69.6333H144.635V83.6027C144.635 87.2133 141.697 90.1505 138.087 90.1505H129.076C127.994 81.0668 120.247 73.9986 110.877 73.9986C101.507 73.9986 93.7603 81.0668 92.6774 90.1505H69.4072V69.6333H101.158C102.364 69.6333 103.341 68.6561 103.341 67.4507C103.341 66.2453 102.364 65.2681 101.158 65.2681H69.4072V18.1241H101.678C104.345 18.1241 106.723 19.7163 107.735 22.1812L117.594 46.1696C118.481 48.3269 120.256 49.986 122.465 50.7223L140.159 56.6182C142.836 57.5099 144.635 60.0062 144.635 62.8297V65.2681ZM103.665 24.7683C103.108 23.3837 101.783 22.4888 100.291 22.4888H77.4102C75.4042 22.4888 73.7725 24.1205 73.7725 26.1265V46.3521C73.7725 48.3581 75.4042 49.9898 77.4102 49.9898H108.432C110.943 50.0084 112.765 47.3241 111.806 44.9936L103.665 24.7683ZM78.1377 45.6245V26.854H99.7991L107.355 45.6245H78.1377ZM110.877 85.7847C107.267 85.7847 104.329 88.7219 104.329 92.3326C104.329 95.9432 107.267 98.8804 110.877 98.8804C114.487 98.8804 117.425 95.9432 117.425 92.3326C117.425 88.7219 114.487 85.7847 110.877 85.7847ZM110.877 94.5152C109.673 94.5152 108.694 93.5362 108.694 92.3326C108.694 91.1289 109.673 90.1499 110.877 90.1499C112.081 90.1499 113.06 91.1289 113.06 92.3326C113.06 93.5362 112.081 94.5152 110.877 94.5152ZM37.3228 22.4888H32.0845C29.9182 22.4888 28.1558 24.2512 28.1558 26.4175V35.148H19.4253C17.259 35.148 15.4966 36.9104 15.4966 39.0767V44.315C15.4966 46.4813 17.259 48.2437 19.4253 48.2437H28.1558V56.9742C28.1558 59.1405 29.9182 60.9029 32.0845 60.9029H37.3228C39.4891 60.9029 41.2515 59.1405 41.2515 56.9742V48.2437H49.9819C52.1483 48.2437 53.9106 46.4813 53.9106 44.315V39.0767C53.9106 36.9104 52.1483 35.148 49.9819 35.148H41.2515V26.4175C41.2515 24.2512 39.4891 22.4888 37.3228 22.4888ZM49.5454 39.5132V43.8784H39.9419C38.2569 43.8784 36.8862 45.2491 36.8862 46.9341V56.5376H32.521V46.9341C32.521 45.2491 31.1503 43.8784 29.4653 43.8784H19.8618V39.5132H29.4653C31.1503 39.5132 32.521 38.1425 32.521 36.4576V26.854H36.8862V36.4576C36.8862 38.1425 38.2569 39.5132 39.9419 39.5132H49.5454ZM34.7036 85.7847C31.0933 85.7847 28.1558 88.7219 28.1558 92.3326C28.1558 95.9432 31.0933 98.8804 34.7036 98.8804C38.314 98.8804 41.2515 95.9432 41.2515 92.3326C41.2515 88.7219 38.314 85.7847 34.7036 85.7847ZM34.7036 94.5152C33.5 94.5152 32.521 93.5362 32.521 92.3326C32.521 91.1289 33.5 90.1499 34.7036 90.1499C35.9073 90.1499 36.8862 91.1289 36.8862 92.3326C36.8862 93.5362 35.9073 94.5152 34.7036 94.5152Z" fill="#3ABFEF"/>
</svg>
