<svg width="20" height="20" viewBox="0 0 20 20" fill="none" xmlns="http://www.w3.org/2000/svg">
<path d="M11.7246 9.45871L17.7996 3.38371C17.9361 3.2243 18.0075 3.01923 17.9994 2.8095C17.9913 2.59977 17.9043 2.40082 17.7559 2.25241C17.6075 2.104 17.4086 2.01706 17.1988 2.00895C16.9891 2.00085 16.784 2.07219 16.6246 2.20871L10.5496 8.28371L4.47462 2.20038C4.3152 2.06386 4.11014 1.99252 3.90041 2.00062C3.69068 2.00872 3.49173 2.09567 3.34332 2.24408C3.19491 2.39249 3.10796 2.59144 3.09986 2.80117C3.09176 3.0109 3.1631 3.21596 3.29962 3.37538L9.37462 9.45871L3.29129 15.5337C3.20405 15.6084 3.1332 15.7004 3.08318 15.8037C3.03316 15.9071 3.00505 16.0197 3.00062 16.1345C2.99619 16.2493 3.01553 16.3637 3.05742 16.4706C3.09932 16.5776 3.16287 16.6747 3.24408 16.7559C3.32529 16.8371 3.42241 16.9007 3.52935 16.9426C3.63629 16.9845 3.75073 17.0038 3.8655 16.9994C3.98026 16.9949 4.09287 16.9668 4.19626 16.9168C4.29965 16.8668 4.39158 16.7959 4.46629 16.7087L10.5496 10.6337L16.6246 16.7087C16.784 16.8452 16.9891 16.9166 17.1988 16.9085C17.4086 16.9004 17.6075 16.8134 17.7559 16.665C17.9043 16.5166 17.9913 16.3177 17.9994 16.1079C18.0075 15.8982 17.9361 15.6931 17.7996 15.5337L11.7246 9.45871Z" fill="black"/>
</svg>
