<svg width="37" height="37" viewBox="0 0 37 37" fill="none" xmlns="http://www.w3.org/2000/svg">
<path d="M10.7738 18.9584C10.7738 17.9621 10.0819 17.3674 8.86103 17.3674C8.36299 17.3674 8.02557 17.4155 7.84863 17.4636V20.663C8.05782 20.7105 8.31496 20.7267 8.66763 20.7267C9.97022 20.7267 10.7738 20.0678 10.7738 18.9584Z" fill="#3ABFEF"/>
<path d="M18.3309 17.3995C17.7837 17.3995 17.4309 17.4477 17.2212 17.4959V24.5844C17.4305 24.6334 17.7681 24.6334 18.0736 24.6334C20.2915 24.6489 21.7383 23.4279 21.7383 20.8398C21.7545 18.5885 20.4361 17.3995 18.3309 17.3995Z" fill="#3ABFEF"/>
<path d="M32.8101 13.2347H31.9217V8.9479C31.9217 8.92116 31.9175 8.89423 31.9139 8.86715C31.9125 8.69693 31.8583 8.52973 31.7418 8.39726L24.608 0.248144C24.6059 0.246062 24.6038 0.245323 24.6023 0.243039C24.5598 0.195546 24.5102 0.156047 24.4578 0.121855C24.4423 0.111443 24.4266 0.10271 24.4104 0.093709C24.365 0.0689214 24.3168 0.0483659 24.2672 0.0335203C24.2538 0.0297585 24.2417 0.0242501 24.2283 0.020757C24.1744 0.00799381 24.1184 0 24.0618 0H6.52958C5.72899 0 5.0786 0.651126 5.0786 1.45104V13.2344H4.19035C3.04508 13.2344 2.11646 14.1626 2.11646 15.3083V26.0929C2.11646 27.2377 3.04508 28.1666 4.19035 28.1666H5.07867V35.549C5.07867 36.3488 5.72905 37 6.52964 37H30.4708C31.2706 37 31.9218 36.3489 31.9218 35.549V28.1666H32.8102C33.9551 28.1666 34.884 27.2377 34.884 26.0929V15.3086C34.8839 14.163 33.9551 13.2347 32.8101 13.2347ZM6.52958 1.45131H23.3363V8.87501C23.3363 9.27585 23.6615 9.6005 24.0618 9.6005H30.4707V13.2352H6.52958V1.45131ZM24.3416 20.7586C24.3416 22.8327 23.5864 24.2628 22.54 25.1473C21.3999 26.0956 19.6635 26.5455 17.5424 26.5455C16.2728 26.5455 15.3729 26.4651 14.7613 26.385V15.7434C15.6614 15.5991 16.8355 15.5187 18.0733 15.5187C20.1297 15.5187 21.4642 15.8887 22.5095 16.6758C23.6342 17.5118 24.3416 18.8457 24.3416 20.7586ZM5.42119 26.4333V15.7434C6.1763 15.6155 7.23773 15.5187 8.73264 15.5187C10.2435 15.5187 11.3207 15.8081 12.0438 16.3871C12.7351 16.9333 13.2002 17.8337 13.2002 18.8946C13.2002 19.9559 12.8475 20.856 12.204 21.4664C11.3683 22.2542 10.1307 22.6081 8.68361 22.6081C8.36265 22.6081 8.07232 22.5918 7.84829 22.5595V26.4335H5.42119V26.4333ZM30.4708 35.1562H6.52958V28.1666H30.4707V35.1562H30.4708ZM32.5731 17.6084H28.409V20.0838H32.2993V22.0772H28.409V26.4333H25.9509V15.5991H32.5731V17.6084Z" fill="#3ABFEF"/>
</svg>
